<svg width="1313" height="156" viewBox="0 0 1313 156" fill="none" xmlns="http://www.w3.org/2000/svg">
<path d="M1220.29 152.736C1218.31 152.733 1217.33 152.731 1216.72 152.117C1216.1 151.503 1216.11 150.517 1216.11 148.544L1216.36 7.28703C1216.36 5.31502 1216.36 4.32901 1216.97 3.71731C1217.59 3.1056 1218.57 3.10699 1220.55 3.10976L1263.53 3.17017C1265.5 3.17295 1266.49 3.17433 1267.1 3.78839C1267.72 4.40245 1267.71 5.38923 1267.71 7.36278L1267.53 99.5848C1267.53 101.557 1267.53 102.543 1268.14 103.157C1268.75 103.771 1269.74 103.773 1271.71 103.777L1307.69 103.854C1309.66 103.859 1310.65 103.861 1311.26 104.474C1311.87 105.088 1311.87 106.074 1311.86 108.045L1311.81 148.71C1311.8 150.683 1311.8 151.67 1311.19 152.282C1310.58 152.894 1309.59 152.892 1307.62 152.889L1220.29 152.736Z" fill="#6A9FBB"/>
<path d="M1128.47 155.415C1083.21 155.415 1049 122.02 1049 77.9998C1049 33.9796 1083.21 0.584961 1128.47 0.584961C1173.72 0.584961 1207.93 33.9796 1207.93 77.9998C1207.93 122.02 1173.72 155.415 1128.47 155.415Z" fill="#6A9FBB"/>
<path d="M972.513 152.842C970.54 152.845 969.554 152.847 968.941 152.235C968.327 151.623 968.325 150.637 968.322 148.665L968.153 51.6722C968.149 49.6992 968.147 48.7127 967.533 48.1009C966.919 47.4891 965.933 47.4911 963.96 47.495L940.389 47.5413C938.416 47.5451 937.43 47.5471 936.816 46.9353C936.202 46.3235 936.2 45.337 936.196 43.364L936.134 7.47071C936.13 5.49808 936.129 4.51177 936.74 3.89788C937.352 3.28399 938.338 3.28227 940.311 3.27883L1045.18 3.0958C1047.15 3.09236 1048.14 3.09063 1048.75 3.70238C1049.37 4.31413 1049.37 5.30045 1049.37 7.27307L1049.43 43.1682C1049.44 45.1404 1049.44 46.1265 1048.83 46.7404C1048.22 47.3542 1047.23 47.3562 1045.26 47.3601L1021.68 47.4064C1019.71 47.4102 1018.72 47.4122 1018.11 48.026C1017.5 48.6399 1017.5 49.626 1017.51 51.5982L1017.68 148.59C1017.68 150.564 1017.68 151.55 1017.07 152.164C1016.46 152.778 1015.47 152.779 1013.5 152.782L972.513 152.842Z" fill="#6A9FBB"/>
<path d="M875.095 155.414C843.049 155.358 818.833 135.99 816.477 110.486C816.304 108.609 816.217 107.671 816.841 106.988C817.464 106.305 818.467 106.307 820.473 106.311L854.541 106.37C856.179 106.373 856.997 106.374 857.505 106.692C858.013 107.01 858.566 108.145 859.673 110.416C861.981 115.149 868.244 118.537 875.593 118.55C883.604 118.564 890.539 114.673 890.548 109.686C890.577 92.9883 818.466 99.5847 818.554 48.8423C818.605 19.7847 842.888 0.527548 874.5 0.58272C904.859 0.635708 926.507 18.7757 928.659 43.5502C928.823 45.4331 928.905 46.3745 928.281 47.0531C927.658 47.7316 926.656 47.7299 924.651 47.7264L892.675 47.6706C891.128 47.6679 890.354 47.6665 889.867 47.383C889.381 47.0995 888.729 45.9547 887.426 43.665C885.304 39.9346 880.21 37.4569 874.002 37.4461C867.074 37.434 861.006 40.4593 860.997 45.6637C860.967 63.0115 935.177 52.7323 935.085 104.993C935.032 135.568 907.573 155.47 875.095 155.414Z" fill="#6A9FBB"/>
<path d="M768.8 153.322C766.828 153.322 765.841 153.322 765.228 152.709C764.616 152.097 764.616 151.11 764.616 149.138V6.86183C764.616 4.8892 764.616 3.90288 765.228 3.29006C765.841 2.67725 766.828 2.67725 768.8 2.67725H801.786C803.758 2.67725 804.744 2.67725 805.357 3.29006C805.97 3.90288 805.97 4.8892 805.97 6.86183V149.138C805.97 151.11 805.97 152.097 805.357 152.709C804.744 153.322 803.758 153.322 801.786 153.322H768.8Z" fill="#6A9FBB"/>
<path d="M447.838 153.322C446.382 153.322 445.655 153.322 445.107 152.927C444.559 152.533 444.329 151.842 443.868 150.461L396.427 8.1855C395.589 5.67199 395.17 4.41523 395.796 3.54624C396.422 2.67725 397.747 2.67725 400.397 2.67725H442.481C443.941 2.67725 444.671 2.67725 445.219 3.07384C445.768 3.47044 445.997 4.1634 446.455 5.54932L462.335 53.6237C463.879 58.2993 464.651 60.637 466.13 60.6686C467.608 60.7002 468.479 58.3975 470.222 53.7921L486.165 11.6578C486.66 10.3498 486.908 9.69575 487.445 9.32494C487.981 8.95412 488.681 8.95412 490.079 8.95412H530.924C532.336 8.95412 533.042 8.95412 533.582 9.33069C534.121 9.70725 534.365 10.37 534.852 11.6955L550.199 53.4653C551.935 58.1908 552.803 60.5535 554.294 60.5242C555.785 60.4948 556.559 58.0997 558.108 53.3096L573.544 5.57435C573.996 4.1769 574.222 3.47817 574.772 3.07771C575.322 2.67725 576.057 2.67725 577.525 2.67725H618.523C621.166 2.67725 622.488 2.67725 623.114 3.54404C623.74 4.41084 623.326 5.66563 622.496 8.17522L575.464 150.451C575.006 151.837 574.777 152.529 574.228 152.926C573.68 153.322 572.95 153.322 571.491 153.322H535.802C534.518 153.322 533.876 153.322 533.364 152.999C532.853 152.676 532.577 152.097 532.024 150.938L513.355 111.755C511.711 108.303 510.889 106.578 509.565 106.58C508.242 106.582 507.426 108.311 505.794 111.768L487.309 150.924C486.759 152.09 486.483 152.672 485.971 152.997C485.458 153.322 484.813 153.322 483.525 153.322H447.838Z" fill="#6A9FBB"/>
<path d="M280.758 153.448C278.057 153.453 276.707 153.455 276.08 152.57C275.453 151.684 275.905 150.411 276.807 147.865L327.271 5.5011C327.748 4.15705 327.986 3.48503 328.528 3.10168C329.069 2.71834 329.782 2.7171 331.208 2.71461L374.022 2.63988C375.448 2.6374 376.161 2.63615 376.704 3.0176C377.247 3.39905 377.488 4.07024 377.969 5.41262L428.93 147.6C429.841 150.143 430.297 151.414 429.673 152.302C429.05 153.189 427.699 153.191 424.998 153.196L388.724 153.26C387.256 153.262 386.522 153.263 385.971 152.864C385.42 152.465 385.193 151.767 384.738 150.37L379.874 135.43C379.42 134.034 379.193 133.336 378.642 132.936C378.091 132.537 377.356 132.538 375.888 132.541L328.93 132.623C327.462 132.625 326.727 132.627 326.178 133.028C325.628 133.429 325.403 134.128 324.954 135.526L320.142 150.483C319.693 151.881 319.468 152.58 318.918 152.981C318.369 153.382 317.634 153.384 316.166 153.386L280.758 153.448Z" fill="#6A9FBB"/>
<path d="M4.24708 153.348C2.27445 153.348 1.28814 153.348 0.675318 152.736C0.0625 152.123 0.0625 151.136 0.0625 149.164V7.90772C0.0625 5.93509 0.0625 4.94878 0.675318 4.33596C1.28814 3.72314 2.27445 3.72314 4.24708 3.72314H59.6043C103.557 3.72314 136.467 35.8167 136.467 78.5358C136.467 121.255 103.557 153.348 59.6043 153.348H4.24708Z" fill="#6A9FBB"/>
<path fill-rule="evenodd" clip-rule="evenodd" d="M143.387 2.8385C143.387 2.74944 143.459 2.67725 143.548 2.67725H185.072C185.161 2.67725 185.233 2.74944 185.233 2.8385V2.8385C185.233 2.92756 185.305 2.99976 185.394 2.99976H219.859C256.386 2.99976 285.996 28.9672 285.996 60.9998C285.996 81.3668 274.026 99.2819 255.918 109.629C254.293 110.557 253.481 111.022 253.222 111.755C252.963 112.488 253.288 113.322 253.938 114.988L266.66 147.595C267.67 150.183 268.174 151.476 267.551 152.388C266.928 153.3 265.54 153.3 262.762 153.301L225.305 153.303C223.933 153.303 223.248 153.304 222.716 152.944C222.185 152.584 221.93 151.948 221.42 150.674L209.791 121.629C209.281 120.356 209.026 119.719 208.495 119.359C207.964 119 207.278 119 205.906 119H189.418C187.445 119 186.459 119 185.846 119.613C185.233 120.225 185.233 121.212 185.233 123.184V149.138C185.233 151.11 185.233 152.097 184.62 152.709C184.007 153.322 183.021 153.322 181.048 153.322H147.572C145.599 153.322 144.613 153.322 144 152.709C143.387 152.097 143.387 151.11 143.387 149.138V119.195C143.387 119.087 143.3 119 143.192 119V119C143.084 119 142.996 118.912 142.996 118.804V3.19507C142.996 3.0872 143.084 2.99976 143.192 2.99976H143.226C143.315 2.99976 143.387 2.92756 143.387 2.8385V2.8385Z" fill="#6A9FBB"/>
<path d="M669.728 153.366C671.701 153.363 672.687 153.361 673.299 152.747C673.911 152.133 673.909 151.147 673.905 149.174L673.86 123.021C673.856 121.048 673.855 120.062 674.466 119.448C675.078 118.834 676.064 118.832 678.037 118.829L699.483 118.791C731.549 118.735 757.499 92.6953 757.443 60.629C757.387 28.5628 731.347 2.61337 699.28 2.66934L635.989 2.77981C634.016 2.78325 633.03 2.78497 632.418 3.39886C631.806 4.01274 631.808 4.99906 631.811 6.97169L632.06 149.247C632.063 151.22 632.065 152.206 632.679 152.818C633.293 153.43 634.279 153.428 636.252 153.425L669.728 153.366Z" fill="#6A9FBB"/>
</svg>
