<svg width="1312" height="156" viewBox="0 0 1312 156" fill="none" xmlns="http://www.w3.org/2000/svg">
<path d="M1220.22 152.255C1218.25 152.251 1217.26 152.249 1216.65 151.636C1216.04 151.022 1216.04 150.035 1216.05 148.063L1216.29 6.80539C1216.3 4.83338 1216.3 3.84737 1216.91 3.23567C1217.53 2.62396 1218.51 2.62535 1220.48 2.62812L1263.47 2.68853C1265.44 2.69131 1266.43 2.69269 1267.04 3.30675C1267.65 3.92081 1267.65 4.90759 1267.65 6.88114L1267.47 99.1032C1267.47 101.075 1267.46 102.062 1268.08 102.676C1268.69 103.289 1269.67 103.292 1271.65 103.296L1307.63 103.373C1309.6 103.377 1310.58 103.379 1311.19 103.993C1311.81 104.606 1311.8 105.592 1311.8 107.563L1311.74 148.228C1311.74 150.202 1311.74 151.188 1311.13 151.8C1310.51 152.412 1309.53 152.41 1307.55 152.407L1220.22 152.255Z" fill="#CCCCCC"/>
<path d="M1128.4 154.933C1083.15 154.933 1048.94 121.538 1048.94 77.5182C1048.94 33.498 1083.15 0.103418 1128.4 0.103418C1173.65 0.103418 1207.86 33.498 1207.86 77.5182C1207.86 121.538 1173.65 154.933 1128.4 154.933Z" fill="#CCCCCC"/>
<path d="M972.45 152.361C970.478 152.364 969.492 152.365 968.878 151.753C968.264 151.142 968.263 150.156 968.259 148.184L968.09 51.1907C968.087 49.2177 968.085 48.2312 967.471 47.6194C966.857 47.0076 965.87 47.0095 963.897 47.0134L940.327 47.0597C938.354 47.0636 937.367 47.0655 936.753 46.4538C936.139 45.842 936.137 44.8555 936.134 42.8824L936.071 6.98917C936.068 5.01655 936.066 4.03023 936.678 3.41635C937.29 2.80246 938.276 2.80074 940.248 2.79729L1045.12 2.61426C1047.09 2.61082 1048.08 2.6091 1048.69 3.22085C1049.3 3.8326 1049.31 4.81891 1049.31 6.79154L1049.37 42.6866C1049.37 44.6589 1049.38 45.645 1048.77 46.2589C1048.15 46.8727 1047.17 46.8746 1045.2 46.8785L1021.62 46.9248C1019.65 46.9287 1018.66 46.9306 1018.05 47.5445C1017.44 48.1584 1017.44 49.1445 1017.44 51.1167L1017.61 148.109C1017.62 150.082 1017.62 151.069 1017.01 151.683C1016.4 152.297 1015.41 152.298 1013.44 152.301L972.45 152.361Z" fill="#CCCCCC"/>
<path d="M875.033 154.932C842.987 154.876 818.77 135.509 816.414 110.004C816.241 108.128 816.154 107.189 816.778 106.507C817.402 105.824 818.405 105.826 820.411 105.829L854.479 105.889C856.116 105.891 856.935 105.893 857.443 106.211C857.95 106.529 858.504 107.664 859.611 109.935C861.918 114.668 868.182 118.056 875.53 118.069C883.541 118.083 890.477 114.192 890.485 109.204C890.514 92.5068 818.403 99.1032 818.492 48.3608C818.542 19.3032 842.826 0.0460814 874.437 0.101253C904.797 0.154241 926.444 18.2942 928.597 43.0687C928.76 44.9516 928.842 45.8931 928.219 46.5716C927.596 47.2502 926.593 47.2484 924.589 47.2449L892.613 47.1891C891.065 47.1864 890.291 47.1851 889.805 46.9015C889.318 46.618 888.667 45.4732 887.364 43.1836C885.241 39.4531 880.147 36.9755 873.94 36.9646C867.011 36.9525 860.943 39.9778 860.934 45.1822C860.904 62.53 935.114 52.2508 935.023 104.511C934.97 135.087 907.51 154.989 875.033 154.932Z" fill="#CCCCCC"/>
<path d="M768.738 152.841C766.765 152.841 765.779 152.841 765.166 152.228C764.553 151.615 764.553 150.629 764.553 148.656V6.3803C764.553 4.40766 764.553 3.42135 765.166 2.80853C765.779 2.19571 766.765 2.19571 768.738 2.19571H801.723C803.696 2.19571 804.682 2.19571 805.295 2.80853C805.908 3.42135 805.908 4.40766 805.908 6.3803V148.656C805.908 150.629 805.908 151.615 805.295 152.228C804.682 152.841 803.696 152.841 801.723 152.841H768.738Z" fill="#CCCCCC"/>
<path d="M447.775 152.841C446.32 152.841 445.592 152.841 445.044 152.446C444.496 152.051 444.266 151.361 443.806 149.98L396.365 7.70397C395.527 5.19045 395.107 3.93369 395.734 3.0647C396.36 2.19571 397.685 2.19571 400.334 2.19571H442.419C443.878 2.19571 444.608 2.19571 445.157 2.59231C445.705 2.9889 445.934 3.68186 446.392 5.06778L462.272 53.1422C463.817 57.8177 464.589 60.1555 466.067 60.1871C467.546 60.2186 468.417 57.916 470.159 53.3106L486.103 11.1762C486.598 9.86822 486.845 9.21422 487.382 8.8434C487.919 8.47259 488.618 8.47259 490.017 8.47259H530.861C532.273 8.47259 532.98 8.47259 533.519 8.84915C534.059 9.22571 534.302 9.88847 534.789 11.214L550.136 52.9838C551.873 57.7092 552.741 60.072 554.232 60.0426C555.722 60.0133 556.497 57.6182 558.046 52.8281L573.481 5.09282C573.933 3.69536 574.159 2.99663 574.709 2.59617C575.26 2.19571 575.994 2.19571 577.463 2.19571H618.46C621.104 2.19571 622.425 2.19571 623.052 3.06251C623.678 3.9293 623.263 5.1841 622.434 7.69369L575.402 149.97C574.944 151.355 574.715 152.048 574.166 152.444C573.617 152.841 572.888 152.841 571.428 152.841H535.74C534.456 152.841 533.814 152.841 533.302 152.518C532.79 152.195 532.514 151.615 531.962 150.456L513.293 111.273C511.648 107.822 510.826 106.096 509.503 106.098C508.179 106.101 507.363 107.829 505.731 111.287L487.246 150.443C486.696 151.608 486.421 152.191 485.908 152.516C485.395 152.841 484.751 152.841 483.462 152.841H447.775Z" fill="#CCCCCC"/>
<path d="M280.696 152.967C277.995 152.971 276.644 152.974 276.017 152.088C275.391 151.203 275.842 149.93 276.745 147.384L327.209 5.01973C327.685 3.67568 327.924 3.00365 328.465 2.62031C329.007 2.23697 329.72 2.23572 331.146 2.23323L373.96 2.15851C375.386 2.15602 376.099 2.15478 376.642 2.53623C377.185 2.91767 377.425 3.58886 377.906 4.93124L428.867 147.118C429.779 149.661 430.234 150.933 429.611 151.82C428.987 152.708 427.637 152.71 424.935 152.715L388.662 152.778C387.193 152.781 386.459 152.782 385.908 152.383C385.357 151.983 385.13 151.285 384.675 149.889L379.812 134.949C379.357 133.553 379.13 132.854 378.579 132.455C378.028 132.056 377.294 132.057 375.826 132.06L328.867 132.141C327.399 132.144 326.665 132.145 326.115 132.547C325.566 132.948 325.341 133.647 324.891 135.045L320.08 150.002C319.63 151.399 319.405 152.098 318.856 152.5C318.306 152.901 317.572 152.902 316.104 152.905L280.696 152.967Z" fill="#CCCCCC"/>
<path d="M4.18458 152.867C2.21195 152.867 1.22564 152.867 0.612818 152.254C0 151.642 0 150.655 0 148.683V7.42644C0 5.45381 0 4.4675 0.612818 3.85468C1.22564 3.24186 2.21195 3.24186 4.18459 3.24186H59.5418C103.494 3.24186 136.405 35.3354 136.405 78.0545C136.405 120.774 103.494 152.867 59.5418 152.867H4.18458Z" fill="#CCCCCC"/>
<path d="M143.325 2.35694C143.325 2.26788 143.397 2.19568 143.486 2.19568H185.009C185.098 2.19568 185.17 2.26788 185.17 2.35694C185.17 2.44599 185.243 2.51819 185.332 2.51819H219.796C256.323 2.51819 285.934 28.4857 285.934 60.5182C285.934 80.8852 273.963 98.8003 255.855 109.148C254.231 110.076 253.419 110.54 253.159 111.273C252.9 112.007 253.225 112.84 253.876 114.507L266.598 147.113C267.607 149.701 268.112 150.995 267.489 151.907C266.866 152.819 265.477 152.819 262.699 152.819L225.243 152.822C223.871 152.822 223.185 152.822 222.654 152.462C222.123 152.103 221.868 151.466 221.358 150.193L209.729 121.147C209.219 119.874 208.964 119.237 208.433 118.878C207.901 118.518 207.216 118.518 205.844 118.518H189.355C187.382 118.518 186.396 118.518 185.783 119.131C185.17 119.744 185.17 120.73 185.17 122.703V148.656C185.17 150.629 185.17 151.615 184.558 152.228C183.945 152.841 182.958 152.841 180.986 152.841H147.509C145.537 152.841 144.55 152.841 143.937 152.228C143.325 151.615 143.325 150.629 143.325 148.656V118.714C143.325 118.606 143.237 118.518 143.129 118.518C143.021 118.518 142.934 118.431 142.934 118.323V2.7135C142.934 2.60563 143.021 2.51819 143.129 2.51819H143.163C143.252 2.51819 143.325 2.44599 143.325 2.35694Z" fill="#CCCCCC"/>
<path d="M669.666 152.885C671.638 152.881 672.625 152.879 673.236 152.266C673.848 151.652 673.846 150.665 673.843 148.693L673.797 122.539C673.794 120.567 673.792 119.58 674.404 118.966C675.016 118.352 676.002 118.351 677.975 118.347L699.421 118.31C731.487 118.254 757.436 92.2137 757.38 60.1475C757.324 28.0812 731.284 2.1318 699.218 2.18777L635.926 2.29823C633.954 2.30168 632.967 2.3034 632.355 2.91728C631.744 3.53117 631.745 4.51749 631.749 6.49012L631.997 148.766C632.001 150.738 632.002 151.725 632.616 152.336C633.23 152.948 634.216 152.947 636.189 152.943L669.666 152.885Z" fill="#CCCCCC"/>
</svg>
