<svg width="566" height="208" viewBox="0 0 566 208" fill="none" xmlns="http://www.w3.org/2000/svg">
<g opacity="0.5">
<path d="M17.5156 207.033V0.0327148H153.116V54.0327H74.8156V78.3327H142.016V132.333H74.8156V207.033H17.5156Z" fill="white"/>
<path d="M164.891 207.033V0.0327148H222.191V153.033H297.491V207.033H164.891Z" fill="white"/>
<path d="M307.578 207.033V0.0327148H364.878V207.033H307.578Z" fill="white"/>
<path d="M386.984 207.033V0.0327148H485.984C529.484 0.0327148 562.484 31.5327 562.484 73.5327C562.484 115.533 529.484 147.033 485.984 147.033H444.284V207.033H386.984ZM484.784 54.0327H444.284V93.0327H484.784C495.584 93.0327 503.684 84.6327 503.684 73.5327C503.684 62.4327 495.584 54.0327 484.784 54.0327Z" fill="white"/>
</g>
</svg>
