<svg width="683" height="215" viewBox="0 0 683 215" fill="none" xmlns="http://www.w3.org/2000/svg">
<g opacity="0.5">
<path d="M17.1406 211.033V4.03261H74.4406V81.4326L129.341 4.03261H199.241L123.941 101.833L201.341 211.033H130.241L87.3406 146.533L74.4406 161.233V211.033H17.1406Z" fill="white"/>
<path d="M200.258 211.033V4.03261H257.558V211.033H200.258Z" fill="white"/>
<path d="M380.164 214.633C317.464 214.633 270.064 168.433 270.064 107.533C270.064 46.6326 317.464 0.432617 380.164 0.432617C435.364 0.432617 478.864 36.4326 486.964 86.5326H426.064C419.764 67.9326 401.764 55.6326 380.164 55.6326C351.064 55.6326 328.864 77.8326 328.864 107.533C328.864 137.233 351.064 159.433 380.164 159.433C401.764 159.433 419.764 147.133 426.064 128.533H486.964C478.864 178.633 435.364 214.633 380.164 214.633Z" fill="white"/>
<path d="M497.938 211.033V4.03261H555.237V81.4326L610.138 4.03261H680.038L604.737 101.833L682.138 211.033H611.037L568.138 146.533L555.237 161.233V211.033H497.938Z" fill="white"/>
</g>
</svg>
