<svg width="915" height="215" viewBox="0 0 915 215" fill="none" xmlns="http://www.w3.org/2000/svg">
<g opacity="0.48">
<path d="M17.25 211.033V4.03261H74.55V157.033H149.85V211.033H17.25Z" fill="white"/>
<path d="M159.938 211.033V4.03261H217.238V211.033H159.938Z" fill="white"/>
<path d="M311.344 214.633C264.544 214.633 229.744 184.933 229.744 146.833H288.544C288.544 156.133 299.044 163.633 311.944 163.633C323.044 163.633 332.644 158.233 332.644 151.333C332.644 128.233 232.744 137.533 232.744 67.3326C232.744 27.1326 266.344 0.432617 310.144 0.432617C354.544 0.432617 388.444 28.3326 388.444 65.5326H329.644C329.644 57.4326 320.944 51.4326 309.544 51.4326C299.944 51.4326 291.544 55.6326 291.544 62.8326C291.544 86.8326 391.444 72.4326 391.444 144.733C391.444 187.033 356.344 214.633 311.344 214.633Z" fill="white"/>
<path d="M440.96 211.033V58.0326H391.16V4.03261H548.06V58.0326H498.26V211.033H440.96Z" fill="white"/>
<path d="M559.875 211.033V4.03261H699.975V58.0326H617.175V79.9326H690.375V133.933H617.175V157.033H701.475V211.033H559.875Z" fill="white"/>
<path d="M714.867 211.033V4.03261H772.167L840.567 109.933V4.03261H897.867V211.033H840.567L772.167 105.133V211.033H714.867Z" fill="white"/>
</g>
</svg>
