<svg width="860" height="208" viewBox="0 0 860 208" fill="none" xmlns="http://www.w3.org/2000/svg">
<path d="M70.1 207.033L0.5 0.0327148H63.8L99.5 125.733L134.6 0.0327148H186.2L221.9 125.733L257 0.0327148H318.8L249.8 207.033H192.5L159.8 91.5327L127.4 207.033H70.1Z" fill="#F2E3CF"/>
<path d="M324.343 207.033V0.0327148H464.443V54.0327H381.643V75.9327H454.843V129.933H381.643V153.033H465.943V207.033H324.343Z" fill="#F2E3CF"/>
<path d="M461.286 207.033L535.686 0.0327148H603.186L677.586 207.033H614.886L605.586 178.533H532.086L522.786 207.033H461.286ZM548.886 125.733H588.786L568.986 63.6327L548.886 125.733Z" fill="#F2E3CF"/>
<path d="M679.737 207.033V0.0327148H775.737C819.237 0.0327148 852.237 31.2327 852.237 72.9327C852.237 100.233 837.537 122.433 815.037 134.133L858.538 207.033H787.438L752.938 142.833H737.037V207.033H679.737ZM774.538 54.0327H737.037V93.0327H774.538C785.338 93.0327 793.438 84.6327 793.438 73.5327C793.438 62.4327 785.338 54.0327 774.538 54.0327Z" fill="#F2E3CF"/>
</svg>
